<mxfile host="app.diagrams.net" modified="2021-03-23T06:47:51.736Z" agent="5.0 (Macintosh; Intel Mac OS X 10_15_6) AppleWebKit/605.1.15 (KHTML, like Gecko) Version/14.0.2 Safari/605.1.15" etag="fhNhZ-Ys1SHyfuie4q_h" version="14.5.0" type="github">
  <diagram id="_3LncPrsmreKFIglYwDI" name="Page-1">
    <mxGraphModel dx="1638" dy="538" grid="1" gridSize="10" guides="1" tooltips="1" connect="1" arrows="1" fold="1" page="1" pageScale="1" pageWidth="850" pageHeight="1100" math="0" shadow="0">
      <root>
        <mxCell id="0" />
        <mxCell id="1" parent="0" />
        <mxCell id="mfwibhz9wOhJmcExsnoy-1" value="HLIR" style="rounded=0;whiteSpace=wrap;html=1;align=center;verticalAlign=top;" parent="1" vertex="1">
          <mxGeometry x="40" y="340" width="660" height="230" as="geometry" />
        </mxCell>
        <mxCell id="mfwibhz9wOhJmcExsnoy-2" value="DTU Compiler&lt;br&gt;" style="rounded=0;whiteSpace=wrap;html=1;align=center;verticalAlign=top;" parent="1" vertex="1">
          <mxGeometry x="40" y="190" width="390" height="140" as="geometry" />
        </mxCell>
        <mxCell id="cP5ySLdVDg7BmedUUOFs-1" value="HLIR Compiler" style="rounded=0;whiteSpace=wrap;html=1;verticalAlign=top;" vertex="1" parent="1">
          <mxGeometry x="50" y="220" width="240" height="100" as="geometry" />
        </mxCell>
        <mxCell id="cP5ySLdVDg7BmedUUOFs-2" value="GraphIR Compiler" style="rounded=0;whiteSpace=wrap;html=1;" vertex="1" parent="1">
          <mxGeometry x="300" y="220" width="120" height="100" as="geometry" />
        </mxCell>
        <mxCell id="cP5ySLdVDg7BmedUUOFs-3" value="HLO to HLIR convertor&amp;nbsp;" style="rounded=0;whiteSpace=wrap;html=1;verticalAlign=top;" vertex="1" parent="1">
          <mxGeometry x="50" y="380" width="140" height="80" as="geometry" />
        </mxCell>
        <mxCell id="cP5ySLdVDg7BmedUUOFs-4" value="HLIR to Factor&amp;nbsp;convertor&amp;nbsp;" style="rounded=0;whiteSpace=wrap;html=1;verticalAlign=top;" vertex="1" parent="1">
          <mxGeometry x="50" y="470" width="350" height="90" as="geometry" />
        </mxCell>
        <mxCell id="cP5ySLdVDg7BmedUUOFs-5" value="HLO pass" style="rounded=0;whiteSpace=wrap;html=1;" vertex="1" parent="1">
          <mxGeometry x="60" y="260" width="100" height="50" as="geometry" />
        </mxCell>
        <mxCell id="cP5ySLdVDg7BmedUUOFs-6" value="DTU HLO pass" style="rounded=0;whiteSpace=wrap;html=1;" vertex="1" parent="1">
          <mxGeometry x="180" y="260" width="100" height="50" as="geometry" />
        </mxCell>
        <mxCell id="cP5ySLdVDg7BmedUUOFs-8" value="Module" style="rounded=0;whiteSpace=wrap;html=1;align=center;" vertex="1" parent="1">
          <mxGeometry x="60" y="410" width="50" height="40" as="geometry" />
        </mxCell>
        <mxCell id="cP5ySLdVDg7BmedUUOFs-10" value="proto" style="rounded=0;whiteSpace=wrap;html=1;align=center;" vertex="1" parent="1">
          <mxGeometry x="130" y="410" width="50" height="40" as="geometry" />
        </mxCell>
        <mxCell id="cP5ySLdVDg7BmedUUOFs-11" value="HLIR Pass" style="rounded=0;whiteSpace=wrap;html=1;verticalAlign=top;" vertex="1" parent="1">
          <mxGeometry x="200" y="380" width="200" height="80" as="geometry" />
        </mxCell>
        <mxCell id="cP5ySLdVDg7BmedUUOFs-12" value="Operator Interface&amp;nbsp;" style="rounded=0;whiteSpace=wrap;html=1;verticalAlign=top;" vertex="1" parent="1">
          <mxGeometry x="60" y="500" width="140" height="50" as="geometry" />
        </mxCell>
        <mxCell id="cP5ySLdVDg7BmedUUOFs-13" value="Operator Implementation" style="rounded=0;whiteSpace=wrap;html=1;verticalAlign=top;" vertex="1" parent="1">
          <mxGeometry x="-250" y="470" width="270" height="100" as="geometry" />
        </mxCell>
      </root>
    </mxGraphModel>
  </diagram>
</mxfile>
